HIERARCHY
ROOT RootJoint
{
    OFFSET   0.000000   0.000000   0.000000
    CHANNELS 6 Xposition Yposition Zposition Xrotation Yrotation Zrotation
    JOINT pelvis_lowerback
    {
        OFFSET   0.000000   0.093605   0.000000
        CHANNELS 3 Xrotation Yrotation Zrotation
        JOINT lowerback_torso
        {
            OFFSET   0.000000   0.100000   0.000000
            CHANNELS 3 Xrotation Yrotation Zrotation
            JOINT torso_head
            {
                OFFSET   0.000000   0.282350   0.000000
                CHANNELS 3 Xrotation Yrotation Zrotation
                End Site
                {
                    OFFSET   0.000000   0.192650   0.000000
                }
            }
            JOINT rTorso_Clavicle
            {
                OFFSET  -0.001000   0.157500   0.000000
                CHANNELS 3 Xrotation Yrotation Zrotation
                JOINT rShoulder
                {
                    OFFSET  -0.117647   0.000000   0.000000
                    CHANNELS 3 Xrotation Yrotation Zrotation
                    JOINT rElbow
                    {
                        OFFSET  -0.245000   0.000000   0.000000
                        CHANNELS 3 Xrotation Yrotation Zrotation
                        JOINT rWrist
                        {
                            OFFSET  -0.240000   0.000000   0.000000
                            CHANNELS 3 Xrotation Yrotation Zrotation
                            End Site
                            {
                                OFFSET  -0.116353  -0.002500   0.000000
                            }
                        }
                    }
                }
            }
            JOINT lTorso_Clavicle
            {
                OFFSET   0.001000   0.157500   0.000000
                CHANNELS 3 Xrotation Yrotation Zrotation
                JOINT lShoulder
                {
                    OFFSET   0.117647   0.000000   0.000000
                    CHANNELS 3 Xrotation Yrotation Zrotation
                    JOINT lElbow
                    {
                        OFFSET   0.245000   0.000000   0.000000
                        CHANNELS 3 Xrotation Yrotation Zrotation
                        JOINT lWrist
                        {
                            OFFSET   0.240000   0.000000   0.000000
                            CHANNELS 3 Xrotation Yrotation Zrotation
                            End Site
                            {
                                OFFSET   0.116353  -0.002500   0.000000
                            }
                        }
                    }
                }
            }
        }
    }
    JOINT rHip
    {
        OFFSET  -0.100000  -0.051395   0.000000
        CHANNELS 3 Xrotation Yrotation Zrotation
        JOINT rKnee
        {
            OFFSET   0.000000  -0.410000   0.000000
            CHANNELS 3 Xrotation Yrotation Zrotation
            JOINT rAnkle
            {
                OFFSET   0.000000  -0.390000   0.000000
                CHANNELS 3 Xrotation Yrotation Zrotation
                JOINT rToeJoint
                {
                    OFFSET   0.000000  -0.050000   0.130000
                    CHANNELS 3 Xrotation Yrotation Zrotation
                    End Site
                    {
                        OFFSET  -0.010000   0.002000   0.060000
                    }
                }
            }
        }
    }
    JOINT lHip
    {
        OFFSET   0.100000  -0.051395   0.000000
        CHANNELS 3 Xrotation Yrotation Zrotation
        JOINT lKnee
        {
            OFFSET   0.000000  -0.410000   0.000000
            CHANNELS 3 Xrotation Yrotation Zrotation
            JOINT lAnkle
            {
                OFFSET   0.000000  -0.390000   0.000000
                CHANNELS 3 Xrotation Yrotation Zrotation
                JOINT lToeJoint
                {
                    OFFSET   0.000000  -0.050000   0.130000
                    CHANNELS 3 Xrotation Yrotation Zrotation
                    End Site
                    {
                        OFFSET   0.010000   0.002000   0.060000
                    }
                }
            }
        }
    }
}
MOTION
Frames: 5
Frame Time:   0.008333
 -1.920566   0.901370   3.965084  -4.196697  22.850188   3.859384   3.619274   0.856022  -0.033910  -1.177621   0.108456  -1.744437  -1.299175  -4.439343   3.820756  -6.358624   7.251035 -11.569100 -17.730742  20.262075  10.869991  -0.002465  82.371077  -0.021823   1.322547   7.758003  -3.870866   3.045459  -2.452610  -2.341111  13.942859  -9.016111 -40.624594  -0.025805 -50.179344  -0.027894   2.263583  -4.051241   2.427886  -6.831309  -6.656118 -12.317717  29.051192  -0.007825  -0.011346 -13.012196 -13.646964   0.746410  -2.113070  -0.000006   0.001617  -3.354538  13.366670   9.140934  14.645171   0.000157   0.001893  -6.114363  13.265733   0.605936   1.531583  -0.000086  -0.000112
 -1.920462   0.901391   3.966700  -4.134860  22.103552   3.700070   3.607610   0.795884   0.030560  -1.172863   0.042453  -1.853800  -1.200527  -4.566574   3.832235  -6.537502   7.360323 -12.141719 -18.201733  20.500962  10.645611  -0.006173  82.655440  -0.016561   1.234455   7.902678  -3.646572   3.123483  -2.628724  -2.260181  14.316864  -9.130114 -40.901688  -0.022959 -49.995195  -0.025152   2.295965  -3.993132   2.319225  -7.088977  -6.820040 -11.896698  29.153493  -0.006859  -0.009689 -13.238346 -13.774957   0.469841  -1.826233  -0.000499  -0.001120  -3.116645  13.770616   9.305791  14.570123   0.000216   0.001745  -6.237786  13.630636   0.512572   1.532085  -0.000068  -0.000089
 -1.920604   0.901356   3.968424  -4.064351  21.300724   3.533887   3.587034   0.736098   0.080142  -1.177779  -0.016640  -1.966745  -1.094214  -4.687489   3.846418  -6.749704   7.470399 -12.737321 -18.673848  20.730258  10.397153  -0.009073  82.915490  -0.012370   1.148643   8.010355  -3.540000   3.198927  -2.782341  -2.151980  14.669627  -9.226560 -41.143070  -0.020387 -49.824480  -0.022712   2.327871  -3.945442   2.242284  -7.333231  -7.003825 -11.431542  29.207885  -0.005833  -0.008099 -13.464997 -13.907927   0.205154  -1.727112  -0.000628  -0.001786  -2.881709  14.202647   9.485120  14.499077   0.000272   0.001630  -6.365323  14.033737   0.438239   1.540984  -0.000059  -0.000071
 -1.920935   0.901263   3.970232  -3.988873  20.491894   3.378174   3.554898   0.662652   0.110494  -1.199422  -0.084055  -2.088765  -0.990498  -4.800943   3.859986  -6.972822   7.570505 -13.327837 -19.129932  20.944869  10.141920  -0.010990  83.156967  -0.009277   1.067442   8.101153  -3.511383   3.267909  -2.924376  -2.032703  14.998663  -9.312630 -41.355513  -0.018090 -49.664175  -0.020533   2.359069  -3.894468   2.189336  -7.559974  -7.195441 -10.966627  29.245516  -0.004907  -0.006722 -13.689113 -14.043040  -0.047302  -1.771023  -0.000395  -0.001030  -2.656171  14.651307   9.658817  14.431626   0.000315   0.001521  -6.487086  14.458019   0.374615   1.554377  -0.000055  -0.000051
 -1.921428   0.901113   3.972112  -3.911136  19.692312   3.233681   3.509367   0.576278   0.126258  -1.237212  -0.162129  -2.216647  -0.892223  -4.907242   3.871873  -7.195897   7.658797 -13.898694 -19.563694  21.143659   9.889806  -0.012012  83.381542  -0.007106   0.990400   8.181254  -3.526677   3.329038  -3.059685  -1.912105  15.303302  -9.393195 -41.546043  -0.016030 -49.514642  -0.018554   2.389410  -3.843596   2.153143  -7.766582  -7.386317 -10.517179  29.278047  -0.004129  -0.005586 -13.908359 -14.176144  -0.286922  -1.912984   0.000021   0.000453  -2.439142  15.100897   9.827079  14.367792   0.000348   0.001415  -6.604711  14.885133   0.320535   1.571935  -0.000056  -0.000033
